<svg xmlns="http://www.w3.org/2000/svg" viewBox="0 0 64 64" role="img" aria-label="Ashlr Stack">
  <defs>
    <linearGradient id="bg" x1="0" y1="0" x2="0" y2="1">
      <stop offset="0%" stop-color="#0a0c10"/>
      <stop offset="100%" stop-color="#05070a"/>
    </linearGradient>
    <linearGradient id="steel" x1="0" x2="0" y1="0" y2="1">
      <stop offset="0%" stop-color="#2a3340"/>
      <stop offset="60%" stop-color="#1a1f26"/>
      <stop offset="100%" stop-color="#0f1419"/>
    </linearGradient>
    <linearGradient id="phantom" x1="0" x2="0" y1="0" y2="1">
      <stop offset="0%" stop-color="#3a2212"/>
      <stop offset="100%" stop-color="#1a0e08"/>
    </linearGradient>
    <radialGradient id="glow" cx="50%" cy="85%" r="55%">
      <stop offset="0%" stop-color="#e96b2a" stop-opacity="0.55"/>
      <stop offset="70%" stop-color="#e96b2a" stop-opacity="0"/>
    </radialGradient>
    <clipPath id="tri"><path d="M32 8 L56 54 L8 54 Z"/></clipPath>
  </defs>
  <rect width="64" height="64" rx="14" fill="url(#bg)"/>
  <ellipse cx="32" cy="56" rx="24" ry="6" fill="url(#glow)"/>
  <g clip-path="url(#tri)">
    <rect x="0" y="0" width="64" height="48.25" fill="url(#steel)"/>
    <rect x="0" y="48.25" width="64" height="5.75" fill="url(#phantom)"/>
    <line x1="0" x2="64" y1="13.75" y2="13.75" stroke="#e96b2a" stroke-width="0.7" stroke-opacity="0.25"/>
    <line x1="0" x2="64" y1="19.5"  y2="19.5"  stroke="#e96b2a" stroke-width="0.7" stroke-opacity="0.25"/>
    <line x1="0" x2="64" y1="25.25" y2="25.25" stroke="#e96b2a" stroke-width="0.7" stroke-opacity="0.25"/>
    <line x1="0" x2="64" y1="31"    y2="31"    stroke="#e96b2a" stroke-width="0.7" stroke-opacity="0.25"/>
    <line x1="0" x2="64" y1="36.75" y2="36.75" stroke="#e96b2a" stroke-width="0.7" stroke-opacity="0.25"/>
    <line x1="0" x2="64" y1="42.5"  y2="42.5"  stroke="#e96b2a" stroke-width="0.7" stroke-opacity="0.25"/>
    <line x1="0" x2="64" y1="48.25" y2="48.25" stroke="#e96b2a" stroke-width="0.7" stroke-opacity="0.85"/>
  </g>
  <path d="M32 8 L56 54 L8 54 Z" fill="none" stroke="#e96b2a" stroke-width="2.2" stroke-linejoin="miter"/>
</svg>
