<svg xmlns="http://www.w3.org/2000/svg" width="192" height="192" viewBox="0 0 192 192" role="img" aria-label="Ashlr Stack">
  <defs>
    <linearGradient id="bg" x1="0" y1="0" x2="0" y2="1">
      <stop offset="0%" stop-color="#0a0c10"/>
      <stop offset="100%" stop-color="#05070a"/>
    </linearGradient>
    <linearGradient id="ring" x1="0" y1="1" x2="1" y2="0">
      <stop offset="0%" stop-color="#39556f" stop-opacity="0.55"/>
      <stop offset="55%" stop-color="#6b8097" stop-opacity="0.9"/>
      <stop offset="100%" stop-color="#f5883e"/>
    </linearGradient>
    <linearGradient id="facet" x1="0" y1="0" x2="1" y2="1">
      <stop offset="0%" stop-color="#f5883e"/>
      <stop offset="100%" stop-color="#c2521c"/>
    </linearGradient>
    <linearGradient id="shadow" x1="0" y1="0" x2="0" y2="1">
      <stop offset="0%" stop-color="#1a1f26"/>
      <stop offset="100%" stop-color="#2a1a10"/>
    </linearGradient>
    <radialGradient id="glow" cx="50%" cy="88%" r="55%">
      <stop offset="0%" stop-color="#e96b2a" stop-opacity="0.5"/>
      <stop offset="70%" stop-color="#e96b2a" stop-opacity="0"/>
    </radialGradient>
    <radialGradient id="sat" cx="50%" cy="50%" r="50%">
      <stop offset="0%" stop-color="#fbe1cf"/>
      <stop offset="35%" stop-color="#f5883e"/>
      <stop offset="100%" stop-color="#e96b2a"/>
    </radialGradient>
  </defs>
  <rect width="192" height="192" rx="42" fill="url(#bg)"/>
  <!-- Center (96,96). Ring radius 75. Spire apex (96,45), base (60,135)..(132,135). -->
  <ellipse cx="96" cy="162" rx="60" ry="13.5" fill="url(#glow)"/>
  <path d="M 96 21 A 75 75 0 0 1 157.5 136.5" stroke="url(#ring)" stroke-width="8.3" stroke-linecap="round" fill="none"/>
  <path d="M 49.8 159.9 A 75 75 0 0 1 24.45 74.1" stroke="url(#ring)" stroke-width="8.3" stroke-linecap="round" fill="none"/>
  <path d="M 24.45 74.1 A 75 75 0 0 1 49.8 159.9" stroke="#f5883e" stroke-opacity="0.45" stroke-width="4.2" stroke-dasharray="3.6 11" stroke-linecap="round" fill="none"/>
  <path d="M 96 45 L 96 135 L 60 135 Z" fill="url(#shadow)"/>
  <path d="M 96 45 L 132 135 L 96 135 Z" fill="url(#facet)"/>
  <path d="M 96 45 L 132 135 L 60 135 Z" fill="none" stroke="#f5883e" stroke-width="6.3" stroke-linejoin="miter"/>
  <line x1="96" y1="45" x2="96" y2="135" stroke="#fbe1cf" stroke-opacity="0.2" stroke-width="2.4"/>
  <circle cx="133.5" cy="31.05" r="12" fill="url(#sat)"/>
  <circle cx="133.5" cy="31.05" r="4.2" fill="#fbe1cf"/>
</svg>
