<svg xmlns="http://www.w3.org/2000/svg" width="192" height="192" viewBox="0 0 192 192" role="img" aria-label="Ashlr Stack">
  <defs>
    <linearGradient id="bg" x1="0" y1="0" x2="0" y2="1">
      <stop offset="0%" stop-color="#0a0c10"/>
      <stop offset="100%" stop-color="#05070a"/>
    </linearGradient>
    <linearGradient id="steel" x1="0" x2="0" y1="0" y2="1">
      <stop offset="0%" stop-color="#2a3340"/>
      <stop offset="60%" stop-color="#1a1f26"/>
      <stop offset="100%" stop-color="#0f1419"/>
    </linearGradient>
    <linearGradient id="phantom" x1="0" x2="0" y1="0" y2="1">
      <stop offset="0%" stop-color="#3a2212"/>
      <stop offset="100%" stop-color="#1a0e08"/>
    </linearGradient>
    <radialGradient id="glow" cx="50%" cy="85%" r="55%">
      <stop offset="0%" stop-color="#e96b2a" stop-opacity="0.5"/>
      <stop offset="70%" stop-color="#e96b2a" stop-opacity="0"/>
    </radialGradient>
    <clipPath id="tri"><path d="M96 42 L156 148 L36 148 Z"/></clipPath>
  </defs>
  <rect width="192" height="192" rx="42" fill="url(#bg)"/>
  <ellipse cx="96" cy="162" rx="64" ry="14" fill="url(#glow)"/>
  <g clip-path="url(#tri)">
    <rect x="0" y="0" width="192" height="135" fill="url(#steel)"/>
    <rect x="0" y="135.75" width="192" height="13" fill="url(#phantom)"/>
    <line x1="0" x2="192" y1="55.25" y2="55.25" stroke="#e96b2a" stroke-width="1.5" stroke-opacity="0.22"/>
    <line x1="0" x2="192" y1="68.5"  y2="68.5"  stroke="#e96b2a" stroke-width="1.5" stroke-opacity="0.22"/>
    <line x1="0" x2="192" y1="81.75" y2="81.75" stroke="#e96b2a" stroke-width="1.5" stroke-opacity="0.22"/>
    <line x1="0" x2="192" y1="95"    y2="95"    stroke="#e96b2a" stroke-width="1.5" stroke-opacity="0.22"/>
    <line x1="0" x2="192" y1="108.25" y2="108.25" stroke="#e96b2a" stroke-width="1.5" stroke-opacity="0.22"/>
    <line x1="0" x2="192" y1="121.5" y2="121.5" stroke="#e96b2a" stroke-width="1.5" stroke-opacity="0.22"/>
    <line x1="0" x2="192" y1="135.75" y2="135.75" stroke="#e96b2a" stroke-width="2" stroke-opacity="0.85"/>
  </g>
  <path d="M96 42 L156 148 L36 148 Z" fill="none" stroke="#e96b2a" stroke-width="3.6" stroke-linejoin="miter"/>
</svg>
