<svg xmlns="http://www.w3.org/2000/svg" width="512" height="512" viewBox="0 0 512 512" role="img" aria-label="Ashlr Stack">
  <defs>
    <linearGradient id="bg" x1="0" y1="0" x2="0" y2="1">
      <stop offset="0%" stop-color="#0a0c10"/>
      <stop offset="100%" stop-color="#05070a"/>
    </linearGradient>
    <linearGradient id="steel" x1="0" x2="0" y1="0" y2="1">
      <stop offset="0%" stop-color="#2a3340"/>
      <stop offset="60%" stop-color="#1a1f26"/>
      <stop offset="100%" stop-color="#0f1419"/>
    </linearGradient>
    <linearGradient id="phantom" x1="0" x2="0" y1="0" y2="1">
      <stop offset="0%" stop-color="#3a2212"/>
      <stop offset="100%" stop-color="#1a0e08"/>
    </linearGradient>
    <radialGradient id="glow" cx="50%" cy="85%" r="55%">
      <stop offset="0%" stop-color="#e96b2a" stop-opacity="0.5"/>
      <stop offset="70%" stop-color="#e96b2a" stop-opacity="0"/>
    </radialGradient>
    <clipPath id="tri"><path d="M256 112 L416 396 L96 396 Z"/></clipPath>
  </defs>
  <rect width="512" height="512" rx="112" fill="url(#bg)"/>
  <ellipse cx="256" cy="428" rx="176" ry="36" fill="url(#glow)"/>
  <g clip-path="url(#tri)">
    <rect x="0" y="0" width="512" height="360" fill="url(#steel)"/>
    <rect x="0" y="361.5" width="512" height="34.5" fill="url(#phantom)"/>
    <line x1="0" x2="512" y1="147.5" y2="147.5" stroke="#e96b2a" stroke-width="3.5" stroke-opacity="0.22"/>
    <line x1="0" x2="512" y1="183"   y2="183"   stroke="#e96b2a" stroke-width="3.5" stroke-opacity="0.22"/>
    <line x1="0" x2="512" y1="218.5" y2="218.5" stroke="#e96b2a" stroke-width="3.5" stroke-opacity="0.22"/>
    <line x1="0" x2="512" y1="254"   y2="254"   stroke="#e96b2a" stroke-width="3.5" stroke-opacity="0.22"/>
    <line x1="0" x2="512" y1="289.5" y2="289.5" stroke="#e96b2a" stroke-width="3.5" stroke-opacity="0.22"/>
    <line x1="0" x2="512" y1="325"   y2="325"   stroke="#e96b2a" stroke-width="3.5" stroke-opacity="0.22"/>
    <line x1="0" x2="512" y1="361.5" y2="361.5" stroke="#e96b2a" stroke-width="5"   stroke-opacity="0.85"/>
  </g>
  <path d="M256 112 L416 396 L96 396 Z" fill="none" stroke="#e96b2a" stroke-width="9" stroke-linejoin="miter"/>
</svg>
