<svg xmlns="http://www.w3.org/2000/svg" width="1200" height="630" viewBox="0 0 1200 630" role="img" aria-label="Ashlr Stack — the control plane for your entire dev stack.">
  <defs>
    <radialGradient id="glowTop" cx="78%" cy="0%" r="80%">
      <stop offset="0%" stop-color="#e96b2a" stop-opacity="0.32"/>
      <stop offset="60%" stop-color="#e96b2a" stop-opacity="0"/>
    </radialGradient>
    <radialGradient id="glowBottom" cx="22%" cy="100%" r="60%">
      <stop offset="0%" stop-color="#c2521c" stop-opacity="0.22"/>
      <stop offset="70%" stop-color="#c2521c" stop-opacity="0"/>
    </radialGradient>
    <linearGradient id="steel" x1="0" x2="0" y1="0" y2="1">
      <stop offset="0%" stop-color="#2a3340"/>
      <stop offset="60%" stop-color="#1a1f26"/>
      <stop offset="100%" stop-color="#0f1419"/>
    </linearGradient>
    <linearGradient id="phantom" x1="0" x2="0" y1="0" y2="1">
      <stop offset="0%" stop-color="#3a2212"/>
      <stop offset="100%" stop-color="#1a0e08"/>
    </linearGradient>
    <radialGradient id="triGlow" cx="50%" cy="100%" r="55%">
      <stop offset="0%" stop-color="#e96b2a" stop-opacity="0.55"/>
      <stop offset="70%" stop-color="#e96b2a" stop-opacity="0"/>
    </radialGradient>
    <pattern id="grid" width="96" height="96" patternUnits="userSpaceOnUse">
      <path d="M96 0H0V96" fill="none" stroke="#ffffff" stroke-opacity="0.03" stroke-width="1"/>
    </pattern>
    <clipPath id="tri">
      <path d="M96 340 L226 88 L356 340 Z"/>
    </clipPath>
  </defs>

  <!-- Base -->
  <rect width="1200" height="630" fill="#05070a"/>
  <rect width="1200" height="630" fill="url(#grid)"/>
  <rect width="1200" height="630" fill="url(#glowTop)"/>
  <rect width="1200" height="630" fill="url(#glowBottom)"/>

  <!-- Eyebrow + Mark -->
  <text x="96" y="96" font-family="ui-monospace, 'SF Mono', Menlo, monospace" font-size="20" fill="#e96b2a" letter-spacing="3">STACK · CONTROL PLANE · V0.1</text>

  <!-- Logo mark (nested stacked triangle) -->
  <ellipse cx="226" cy="350" rx="120" ry="18" fill="url(#triGlow)"/>
  <g clip-path="url(#tri)">
    <rect x="0" y="88" width="1200" height="220" fill="url(#steel)"/>
    <rect x="0" y="316" width="1200" height="24" fill="url(#phantom)"/>
    <line x1="96" x2="356" y1="120" y2="120" stroke="#e96b2a" stroke-width="1.6" stroke-opacity="0.22"/>
    <line x1="96" x2="356" y1="152" y2="152" stroke="#e96b2a" stroke-width="1.6" stroke-opacity="0.22"/>
    <line x1="96" x2="356" y1="184" y2="184" stroke="#e96b2a" stroke-width="1.6" stroke-opacity="0.22"/>
    <line x1="96" x2="356" y1="216" y2="216" stroke="#e96b2a" stroke-width="1.6" stroke-opacity="0.22"/>
    <line x1="96" x2="356" y1="248" y2="248" stroke="#e96b2a" stroke-width="1.6" stroke-opacity="0.22"/>
    <line x1="96" x2="356" y1="280" y2="280" stroke="#e96b2a" stroke-width="1.6" stroke-opacity="0.22"/>
    <line x1="96" x2="356" y1="316" y2="316" stroke="#e96b2a" stroke-width="2.2" stroke-opacity="0.9"/>
  </g>
  <path d="M96 340 L226 88 L356 340 Z" fill="none" stroke="#e96b2a" stroke-width="3.8" stroke-linejoin="miter"/>

  <!-- Title -->
  <text x="96" y="440" font-family="'PP Monument Grotesk', ui-sans-serif, system-ui, sans-serif" font-size="64" font-weight="600" fill="#f4f5f7" letter-spacing="-2.2">
    Wire your entire dev stack.
  </text>
  <text x="96" y="510" font-family="'PP Monument Grotesk', ui-sans-serif, system-ui, sans-serif" font-style="italic" font-size="64" font-weight="600" fill="#e96b2a" letter-spacing="-2.2">
    In one command.
  </text>

  <!-- Terminal snippet -->
  <g transform="translate(440, 84)">
    <rect x="0" y="0" width="670" height="172" fill="#0a0c10" stroke="#39556f" stroke-width="1"/>
    <rect x="0" y="0" width="3" height="172" fill="#e96b2a"/>
    <text x="24" y="42" font-family="ui-monospace, 'SF Mono', Menlo, monospace" font-size="18" fill="#6b8097" letter-spacing="2">STK-01 · STACK · TTY</text>
    <text x="24" y="92" font-family="ui-monospace, 'SF Mono', Menlo, monospace" font-size="22" fill="#f5883e">›</text>
    <text x="48" y="92" font-family="ui-monospace, 'SF Mono', Menlo, monospace" font-size="22" fill="#f4f5f7">stack add supabase posthog sentry</text>
    <text x="24" y="126" font-family="ui-monospace, 'SF Mono', Menlo, monospace" font-size="18" fill="#6fe8a7">✓ 3 providers · 10 env vars · 2 MCP servers · 4.2s</text>
    <text x="24" y="154" font-family="ui-monospace, 'SF Mono', Menlo, monospace" font-size="16" fill="#6b7480">Phantom: 10 secrets E2E-encrypted · .mcp.json wired</text>
  </g>

  <!-- Stats strip -->
  <g transform="translate(440, 300)">
    <g font-family="'PP Monument Grotesk', ui-sans-serif, system-ui, sans-serif" font-size="40" font-weight="600" fill="#f4f5f7" letter-spacing="-1">
      <text x="0" y="40">39</text>
      <text x="160" y="40">17</text>
      <text x="320" y="40">08</text>
      <text x="480" y="40">MIT</text>
    </g>
    <g font-family="ui-monospace, 'SF Mono', Menlo, monospace" font-size="14" fill="#6b8097" letter-spacing="2">
      <text x="0"   y="72">PROVIDERS</text>
      <text x="160" y="72">MCP TOOLS</text>
      <text x="320" y="72">TIERS</text>
      <text x="480" y="72">LICENSE</text>
    </g>
  </g>

  <!-- Footer row -->
  <g transform="translate(96, 568)">
    <text x="0" y="0" font-family="ui-monospace, 'SF Mono', Menlo, monospace" font-size="18" fill="#6b8097" letter-spacing="1.6">curl -fsSL stack.ashlr.ai/install.sh | bash</text>
  </g>
  <text x="1104" y="582" font-family="'PP Monument Grotesk', ui-sans-serif, system-ui, sans-serif" font-size="20" font-weight="500" fill="#e96b2a" text-anchor="end" letter-spacing="2">stack.ashlr.ai</text>

  <!-- Corner tick marks -->
  <g stroke="#e96b2a" stroke-width="2" fill="none" opacity="0.7">
    <path d="M40 40 L64 40 M40 40 L40 64"/>
    <path d="M1160 40 L1136 40 M1160 40 L1160 64"/>
    <path d="M40 590 L64 590 M40 590 L40 566"/>
    <path d="M1160 590 L1136 590 M1160 590 L1160 566"/>
  </g>
</svg>
