<svg xmlns="http://www.w3.org/2000/svg" width="1200" height="600" viewBox="0 0 1200 600" role="img" aria-label="Ashlr Stack — the control plane for your entire dev stack.">
  <defs>
    <radialGradient id="glowTop" cx="78%" cy="0%" r="80%">
      <stop offset="0%" stop-color="#e96b2a" stop-opacity="0.32"/>
      <stop offset="60%" stop-color="#e96b2a" stop-opacity="0"/>
    </radialGradient>
    <radialGradient id="glowBottom" cx="22%" cy="100%" r="60%">
      <stop offset="0%" stop-color="#c2521c" stop-opacity="0.22"/>
      <stop offset="70%" stop-color="#c2521c" stop-opacity="0"/>
    </radialGradient>
    <linearGradient id="steel" x1="0" x2="0" y1="0" y2="1">
      <stop offset="0%" stop-color="#2a3340"/>
      <stop offset="60%" stop-color="#1a1f26"/>
      <stop offset="100%" stop-color="#0f1419"/>
    </linearGradient>
    <linearGradient id="phantom" x1="0" x2="0" y1="0" y2="1">
      <stop offset="0%" stop-color="#3a2212"/>
      <stop offset="100%" stop-color="#1a0e08"/>
    </linearGradient>
    <radialGradient id="triGlow" cx="50%" cy="100%" r="55%">
      <stop offset="0%" stop-color="#e96b2a" stop-opacity="0.55"/>
      <stop offset="70%" stop-color="#e96b2a" stop-opacity="0"/>
    </radialGradient>
    <pattern id="grid" width="96" height="96" patternUnits="userSpaceOnUse">
      <path d="M96 0H0V96" fill="none" stroke="#ffffff" stroke-opacity="0.03" stroke-width="1"/>
    </pattern>
    <clipPath id="tri">
      <path d="M96 324 L226 84 L356 324 Z"/>
    </clipPath>
  </defs>

  <rect width="1200" height="600" fill="#05070a"/>
  <rect width="1200" height="600" fill="url(#grid)"/>
  <rect width="1200" height="600" fill="url(#glowTop)"/>
  <rect width="1200" height="600" fill="url(#glowBottom)"/>

  <text x="96" y="92" font-family="ui-monospace, 'SF Mono', Menlo, monospace" font-size="20" fill="#e96b2a" letter-spacing="3">STACK · CONTROL PLANE · V0.1</text>

  <ellipse cx="226" cy="336" rx="120" ry="18" fill="url(#triGlow)"/>
  <g clip-path="url(#tri)">
    <rect x="0" y="84" width="1200" height="210" fill="url(#steel)"/>
    <rect x="0" y="300" width="1200" height="24" fill="url(#phantom)"/>
    <line x1="96" x2="356" y1="115" y2="115" stroke="#e96b2a" stroke-width="1.6" stroke-opacity="0.22"/>
    <line x1="96" x2="356" y1="146" y2="146" stroke="#e96b2a" stroke-width="1.6" stroke-opacity="0.22"/>
    <line x1="96" x2="356" y1="177" y2="177" stroke="#e96b2a" stroke-width="1.6" stroke-opacity="0.22"/>
    <line x1="96" x2="356" y1="208" y2="208" stroke="#e96b2a" stroke-width="1.6" stroke-opacity="0.22"/>
    <line x1="96" x2="356" y1="239" y2="239" stroke="#e96b2a" stroke-width="1.6" stroke-opacity="0.22"/>
    <line x1="96" x2="356" y1="270" y2="270" stroke="#e96b2a" stroke-width="1.6" stroke-opacity="0.22"/>
    <line x1="96" x2="356" y1="300" y2="300" stroke="#e96b2a" stroke-width="2.2" stroke-opacity="0.9"/>
  </g>
  <path d="M96 324 L226 84 L356 324 Z" fill="none" stroke="#e96b2a" stroke-width="3.8" stroke-linejoin="miter"/>

  <text x="96" y="420" font-family="'PP Monument Grotesk', ui-sans-serif, system-ui, sans-serif" font-size="60" font-weight="600" fill="#f4f5f7" letter-spacing="-2">
    Wire your entire dev stack.
  </text>
  <text x="96" y="484" font-family="'PP Monument Grotesk', ui-sans-serif, system-ui, sans-serif" font-style="italic" font-size="60" font-weight="600" fill="#e96b2a" letter-spacing="-2">
    In one command.
  </text>

  <g transform="translate(440, 80)">
    <rect x="0" y="0" width="670" height="164" fill="#0a0c10" stroke="#39556f" stroke-width="1"/>
    <rect x="0" y="0" width="3" height="164" fill="#e96b2a"/>
    <text x="24" y="40" font-family="ui-monospace, 'SF Mono', Menlo, monospace" font-size="18" fill="#6b8097" letter-spacing="2">STK-01 · STACK · TTY</text>
    <text x="24" y="86" font-family="ui-monospace, 'SF Mono', Menlo, monospace" font-size="22" fill="#f5883e">›</text>
    <text x="48" y="86" font-family="ui-monospace, 'SF Mono', Menlo, monospace" font-size="22" fill="#f4f5f7">stack add supabase posthog sentry</text>
    <text x="24" y="120" font-family="ui-monospace, 'SF Mono', Menlo, monospace" font-size="18" fill="#6fe8a7">✓ 3 providers · 10 env vars · 2 MCP servers</text>
    <text x="24" y="148" font-family="ui-monospace, 'SF Mono', Menlo, monospace" font-size="16" fill="#6b7480">Phantom: 10 secrets E2E-encrypted</text>
  </g>

  <text x="1104" y="544" font-family="'PP Monument Grotesk', ui-sans-serif, system-ui, sans-serif" font-size="20" font-weight="500" fill="#e96b2a" text-anchor="end" letter-spacing="2">stack.ashlr.ai</text>

  <g stroke="#e96b2a" stroke-width="2" fill="none" opacity="0.7">
    <path d="M40 40 L64 40 M40 40 L40 64"/>
    <path d="M1160 40 L1136 40 M1160 40 L1160 64"/>
    <path d="M40 560 L64 560 M40 560 L40 536"/>
    <path d="M1160 560 L1136 560 M1160 560 L1160 536"/>
  </g>
</svg>
