<svg xmlns="http://www.w3.org/2000/svg" width="1200" height="600" viewBox="0 0 1200 600" role="img" aria-label="Ashlr Stack — one prompt, 29 providers wired.">
  <defs>
    <radialGradient id="glowTop" cx="78%" cy="0%" r="80%">
      <stop offset="0%" stop-color="#e96b2a" stop-opacity="0.32"/>
      <stop offset="60%" stop-color="#e96b2a" stop-opacity="0"/>
    </radialGradient>
    <radialGradient id="glowBottom" cx="22%" cy="100%" r="60%">
      <stop offset="0%" stop-color="#c2521c" stop-opacity="0.22"/>
      <stop offset="70%" stop-color="#c2521c" stop-opacity="0"/>
    </radialGradient>
    <linearGradient id="twRing" x1="0" y1="1" x2="1" y2="0">
      <stop offset="0%" stop-color="#39556f" stop-opacity="0.55"/>
      <stop offset="55%" stop-color="#6b8097" stop-opacity="0.9"/>
      <stop offset="100%" stop-color="#f5883e"/>
    </linearGradient>
    <linearGradient id="twFacet" x1="0" y1="0" x2="1" y2="1">
      <stop offset="0%" stop-color="#f5883e"/>
      <stop offset="100%" stop-color="#c2521c"/>
    </linearGradient>
    <linearGradient id="twShadow" x1="0" y1="0" x2="0" y2="1">
      <stop offset="0%" stop-color="#1a1f26"/>
      <stop offset="100%" stop-color="#2a1a10"/>
    </linearGradient>
    <radialGradient id="twGlow" cx="50%" cy="85%" r="55%">
      <stop offset="0%" stop-color="#e96b2a" stop-opacity="0.55"/>
      <stop offset="70%" stop-color="#e96b2a" stop-opacity="0"/>
    </radialGradient>
    <radialGradient id="twSat" cx="50%" cy="50%" r="50%">
      <stop offset="0%" stop-color="#fbe1cf"/>
      <stop offset="35%" stop-color="#f5883e"/>
      <stop offset="100%" stop-color="#e96b2a"/>
    </radialGradient>
    <pattern id="grid" width="96" height="96" patternUnits="userSpaceOnUse">
      <path d="M96 0H0V96" fill="none" stroke="#ffffff" stroke-opacity="0.03" stroke-width="1"/>
    </pattern>
  </defs>

  <rect width="1200" height="600" fill="#05070a"/>
  <rect width="1200" height="600" fill="url(#grid)"/>
  <rect width="1200" height="600" fill="url(#glowTop)"/>
  <rect width="1200" height="600" fill="url(#glowBottom)"/>

  <text x="96" y="88" font-family="ui-monospace, 'SF Mono', Menlo, monospace" font-size="20" fill="#e96b2a" letter-spacing="3">STACK · THE ONLY LINE YOU TELL CLAUDE · V0.1.1</text>

  <!-- Orbit & Spire mark (same construction, vertically shifted for 1200x600) -->
  <g transform="translate(226 212) scale(8)">
    <ellipse cx="0" cy="11" rx="10" ry="2.25" fill="url(#twGlow)"/>
    <path d="M 0 -12.5 A 12.5 12.5 0 0 1 10.25 6.75" stroke="url(#twRing)" stroke-width="1.4" stroke-linecap="round" fill="none"/>
    <path d="M -7.7 10.65 A 12.5 12.5 0 0 1 -11.92 -3.65" stroke="url(#twRing)" stroke-width="1.4" stroke-linecap="round" fill="none"/>
    <path d="M -11.92 -3.65 A 12.5 12.5 0 0 1 -7.7 10.65" stroke="#f5883e" stroke-opacity="0.45" stroke-width="0.7" stroke-dasharray="0.6 1.8" stroke-linecap="round" fill="none"/>
    <path d="M 0 -8.5 L 0 6.5 L -6 6.5 Z" fill="url(#twShadow)"/>
    <path d="M 0 -8.5 L 6 6.5 L 0 6.5 Z" fill="url(#twFacet)"/>
    <path d="M 0 -8.5 L 6 6.5 L -6 6.5 Z" fill="none" stroke="#f5883e" stroke-width="1.05" stroke-linejoin="miter"/>
    <line x1="0" y1="-8.5" x2="0" y2="6.5" stroke="#fbe1cf" stroke-opacity="0.18" stroke-width="0.4"/>
    <circle cx="6.25" cy="-10.82" r="2" fill="url(#twSat)"/>
    <circle cx="6.25" cy="-10.82" r="0.7" fill="#fbe1cf"/>
  </g>

  <text x="96" y="420" font-family="'PP Monument Grotesk', ui-sans-serif, system-ui, sans-serif" font-size="66" font-weight="600" fill="#f4f5f7" letter-spacing="-2.2">
    <tspan fill="#e96b2a">“</tspan>Stack my
  </text>
  <text x="96" y="492" font-family="'PP Monument Grotesk', ui-sans-serif, system-ui, sans-serif" font-size="66" font-weight="600" fill="#f4f5f7" letter-spacing="-2.2">
    backend.<tspan fill="#e96b2a">”</tspan>
  </text>

  <g transform="translate(440, 80)">
    <rect x="0" y="0" width="670" height="164" fill="#0a0c10" stroke="#39556f" stroke-width="1"/>
    <rect x="0" y="0" width="3" height="164" fill="#e96b2a"/>
    <text x="24" y="40" font-family="ui-monospace, 'SF Mono', Menlo, monospace" font-size="18" fill="#6b8097" letter-spacing="2">STK-01 · STACK · TTY</text>
    <text x="24" y="86" font-family="ui-monospace, 'SF Mono', Menlo, monospace" font-size="20" fill="#f5883e">you</text>
    <text x="62" y="86" font-family="ui-monospace, 'SF Mono', Menlo, monospace" font-size="20" fill="#6b8097">›</text>
    <text x="82" y="86" font-family="ui-monospace, 'SF Mono', Menlo, monospace" font-size="20" fill="#f4f5f7">Use Stack to set up a B2B SaaS with auth, AI.</text>
    <text x="24" y="120" font-family="ui-monospace, 'SF Mono', Menlo, monospace" font-size="18" fill="#6fe8a7">✓ 6 providers wired · 29 supported · 4.2s</text>
    <text x="24" y="148" font-family="ui-monospace, 'SF Mono', Menlo, monospace" font-size="16" fill="#6b7480">every key in Phantom · .env + .mcp.json written</text>
  </g>

  <text x="1104" y="544" font-family="'PP Monument Grotesk', ui-sans-serif, system-ui, sans-serif" font-size="20" font-weight="500" fill="#e96b2a" text-anchor="end" letter-spacing="2">stack.ashlr.ai</text>

  <g stroke="#e96b2a" stroke-width="2" fill="none" opacity="0.7">
    <path d="M40 40 L64 40 M40 40 L40 64"/>
    <path d="M1160 40 L1136 40 M1160 40 L1160 64"/>
    <path d="M40 560 L64 560 M40 560 L40 536"/>
    <path d="M1160 560 L1136 560 M1160 560 L1160 536"/>
  </g>
</svg>
